<svg xmlns="http://www.w3.org/2000/svg" width="14.952" height="18" viewBox="0 0 14.952 18"><defs><style>.a{fill:#62728e;}</style></defs><g transform="translate(-3.163 -0.554)"><path class="a" d="M15.8,20.739H5.477a2.317,2.317,0,0,1-2.314-2.314V8.1A2.317,2.317,0,0,1,5.477,5.787H15.8A2.317,2.317,0,0,1,18.115,8.1V18.425A2.317,2.317,0,0,1,15.8,20.739ZM5.477,6.952A1.151,1.151,0,0,0,4.328,8.1V18.425a1.151,1.151,0,0,0,1.15,1.15H15.8a1.151,1.151,0,0,0,1.15-1.15V8.1a1.151,1.151,0,0,0-1.15-1.15Z" transform="translate(0 -2.185)"/><path class="a" d="M13.368,19.662a3.67,3.67,0,1,1,3.67-3.67A3.674,3.674,0,0,1,13.368,19.662Zm0-6.176a2.505,2.505,0,1,0,2.5,2.505A2.508,2.508,0,0,0,13.368,13.487Z" transform="translate(-2.729 -4.914)"/><path class="a" d="M17.067,1.719H6.579a.582.582,0,1,1,0-1.165H17.067a.582.582,0,1,1,0,1.165Z" transform="translate(-1.183)"/></g></svg>