<svg xmlns="http://www.w3.org/2000/svg" width="17.305" height="18" viewBox="0 0 17.305 18"><defs><style>.a{fill:#00c8d4;}</style></defs><path class="a" d="M18.333,20.79H5.572A2.276,2.276,0,0,1,3.3,18.516V9.9a2.281,2.281,0,0,1,.9-1.812l6.378-4.835a2.279,2.279,0,0,1,2.75,0l6.378,4.835a2.283,2.283,0,0,1,.9,1.812v8.617A2.275,2.275,0,0,1,18.333,20.79ZM11.953,4.158a.9.9,0,0,0-.547.183L5.027,9.178a.9.9,0,0,0-.358.72v8.619a.9.9,0,0,0,.9.9H18.333a.905.905,0,0,0,.9-.9V9.9a.9.9,0,0,0-.357-.72h0L12.5,4.342A.9.9,0,0,0,11.953,4.158Z" transform="translate(-3.3 -2.79)"/></svg>