<svg xmlns="http://www.w3.org/2000/svg" width="18" height="17.275" viewBox="0 0 18 17.275"><defs><style>.a{fill:#62728e;}</style></defs><g transform="translate(-1.169 -2.647)"><path class="a" d="M17.127,21.36H3.21a2.044,2.044,0,0,1-2.041-2.042V8.358A2.044,2.044,0,0,1,3.21,6.317H17.127a2.043,2.043,0,0,1,2.041,2.041v10.96A2.044,2.044,0,0,1,17.127,21.36ZM3.21,7.572a.787.787,0,0,0-.787.787v10.96a.788.788,0,0,0,.787.788H17.127a.788.788,0,0,0,.788-.788V8.358a.788.788,0,0,0-.788-.787Z" transform="translate(0 -1.438)"/><path class="a" d="M12.8,19.84a2.194,2.194,0,0,1,0-4.388.608.608,0,1,1,0,1.216.978.978,0,1,0,.978.978v-5.4a.608.608,0,0,1,.608-.608h1.7a.608.608,0,1,1,0,1.216H15v4.794A2.2,2.2,0,0,1,12.8,19.84Z" transform="translate(-3.699 -3.522)"/><path class="a" d="M17.555,3.863H6.6a.608.608,0,1,1,0-1.216H17.555a.608.608,0,0,1,0,1.216Z" transform="translate(-1.892)"/></g></svg>