<svg xmlns="http://www.w3.org/2000/svg" viewBox="0 0 480.4 99.1"><defs><style>.cls-1{fill:none;stroke:#fff;stroke-width:5px;}.cls-2{fill:#fff;}</style></defs><g id="Layer_2" data-name="Layer 2"><g id="Layer_1-2" data-name="Layer 1"><path class="cls-1" d="M47.3,9.1H40.7V2.5H2.5V53.9H40.6V47.2h6.6V40.6h6.6V15.7H47.2V9.1ZM29,35.6v6.6H20.8V14.1H29v6.6h6.6V35.6Z"/><polygon class="cls-1" points="55.5 53.9 106.9 53.9 106.9 42.2 73.8 42.2 73.8 34 100.3 34 100.3 22.4 73.8 22.4 73.8 14.1 106.9 14.1 106.9 2.5 55.5 2.5 55.5 53.9"/><polygon class="cls-1" points="108.5 53.9 126.8 53.9 126.8 34 153.3 34 153.3 22.4 126.8 22.4 126.8 14.1 159.9 14.1 159.9 2.5 108.5 2.5 108.5 53.9"/><polygon class="cls-1" points="168.1 14.1 181.4 14.1 181.4 42.2 168.1 42.2 168.1 53.9 212.9 53.9 212.9 42.2 199.6 42.2 199.6 14.1 212.9 14.1 212.9 2.5 168.1 2.5 168.1 14.1"/><polygon class="cls-1" points="247.6 22.4 241 22.4 241 29 239.4 29 239.4 22.4 232.8 22.4 232.8 2.5 214.5 2.5 214.5 34 221.1 34 221.1 40.6 227.8 40.6 227.8 47.2 234.4 47.2 234.4 53.9 246 53.9 246 47.2 252.6 47.2 252.6 40.6 259.2 40.6 259.2 34 265.9 34 265.9 2.5 247.6 2.5 247.6 22.4"/><polygon class="cls-1" points="274.1 14.1 287.4 14.1 287.4 42.2 274.1 42.2 274.1 53.9 318.9 53.9 318.9 42.2 305.6 42.2 305.6 14.1 318.9 14.1 318.9 2.5 274.1 2.5 274.1 14.1"/><polygon class="cls-1" points="345.4 2.5 327.1 2.5 327.1 53.9 371.9 53.9 371.9 42.2 345.4 42.2 345.4 2.5"/><polygon class="cls-1" points="398.4 2.5 380.1 2.5 380.1 53.9 424.9 53.9 424.9 42.2 398.4 42.2 398.4 2.5"/><polygon class="cls-1" points="477.9 14.1 477.9 2.5 426.5 2.5 426.5 53.9 477.9 53.9 477.9 42.2 444.8 42.2 444.8 34 471.2 34 471.2 22.4 444.8 22.4 444.8 14.1 477.9 14.1"/><path class="cls-2" d="M23.08,98.88H17.61L8.46,85V98.88H3V76.42H8.46l9.15,13.92V76.42h5.47Z"/><path class="cls-2" d="M63.75,76.42V98.88H58.28V76.42Z"/><path class="cls-2" d="M113.58,76.42V80.8h-9.16v4.74h6.85v4.25h-6.85v9.09H99V76.42Z"/><path class="cls-2" d="M163.85,76.42V80.8H157.9V98.88h-5.48V80.8h-5.95V76.42Z"/><path class="cls-2" d="M217.1,76.42l-7.78,15v7.42h-5.47V91.46l-7.78-15h6.21l4.35,9.4,4.32-9.4Z"/><path class="cls-2" d="M276,76.42V98.88H270.5V85.41l-5,13.47h-4.42L256,85.38v13.5h-5.47V76.42H257L263.3,92l6.24-15.55Z"/><path class="cls-2" d="M316.52,76.42V89.86a4.44,4.44,0,0,0,1,3.1,3.72,3.72,0,0,0,2.91,1.09A3.86,3.86,0,0,0,323.37,93a4.36,4.36,0,0,0,1-3.1V76.42h5.47v13.4a9.45,9.45,0,0,1-1.28,5.09,8.2,8.2,0,0,1-3.44,3.14,10.85,10.85,0,0,1-4.81,1,10.43,10.43,0,0,1-4.75-1,7.7,7.7,0,0,1-3.32-3.13,10,10,0,0,1-1.21-5.11V76.42Z"/><path class="cls-2" d="M368.65,98.3a7.1,7.1,0,0,1-3.12-2.36,6.55,6.55,0,0,1-1.24-3.78h5.83a2.6,2.6,0,0,0,2.78,2.56,3,3,0,0,0,1.92-.56,1.87,1.87,0,0,0,.71-1.55,1.85,1.85,0,0,0-.56-1.38,4.62,4.62,0,0,0-1.38-.89,19.2,19.2,0,0,0-2.32-.8,24.84,24.84,0,0,1-3.55-1.35,6.59,6.59,0,0,1-2.37-2,5.56,5.56,0,0,1-1-3.43,5.9,5.9,0,0,1,2.27-4.91,9.35,9.35,0,0,1,5.92-1.77,9.45,9.45,0,0,1,6,1.77A6.37,6.37,0,0,1,381,82.82h-5.92a2.36,2.36,0,0,0-.8-1.72,2.87,2.87,0,0,0-1.89-.62,2.36,2.36,0,0,0-1.6.53,2,2,0,0,0,.41,3.21,16.67,16.67,0,0,0,3.2,1.32,31.45,31.45,0,0,1,3.54,1.4,6.66,6.66,0,0,1,2.35,2,5.22,5.22,0,0,1,1,3.29,6.49,6.49,0,0,1-1,3.49,6.86,6.86,0,0,1-2.83,2.5,9.83,9.83,0,0,1-4.39.92A11.4,11.4,0,0,1,368.65,98.3Z"/><path class="cls-2" d="M421.32,76.42V98.88h-5.47V76.42Z"/><path class="cls-2" d="M457,81.68a10.26,10.26,0,0,1,4-4.06,11.64,11.64,0,0,1,5.84-1.46,11.15,11.15,0,0,1,6.84,2.11A10.15,10.15,0,0,1,477.54,84h-6a4.87,4.87,0,0,0-1.91-2.14,5.35,5.35,0,0,0-2.8-.74,5.22,5.22,0,0,0-4.09,1.76,7.84,7.84,0,0,0,0,9.41,5.22,5.22,0,0,0,4.09,1.76,5.35,5.35,0,0,0,2.8-.74,4.87,4.87,0,0,0,1.91-2.14h6a10,10,0,0,1-3.81,5.74,11.21,11.21,0,0,1-6.84,2.1,11.64,11.64,0,0,1-5.84-1.46,10.34,10.34,0,0,1-4-4,12.93,12.93,0,0,1,0-11.86Z"/></g></g></svg>