<svg xmlns="http://www.w3.org/2000/svg" width="18" height="15.001" viewBox="0 0 18 15.001"><defs><style>.a{fill:#62728e;}</style></defs><path class="a" d="M6.72,17.716,3.939,20.5H.75a.75.75,0,0,0-.75.75v4.5a.75.75,0,0,0,.75.75H3.939l2.78,2.78A.75.75,0,0,0,8,28.745v-10.5a.75.75,0,0,0-1.28-.53Zm7.291-1.6a.756.756,0,1,0-.83,1.264,7.3,7.3,0,0,1,0,12.224.756.756,0,1,0,.83,1.264,8.814,8.814,0,0,0,0-14.752ZM15,23.5a5.77,5.77,0,0,0-2.68-4.882.747.747,0,0,0-1.035.233.759.759,0,0,0,.232,1.043,4.271,4.271,0,0,1,0,7.214.759.759,0,0,0-.232,1.043.748.748,0,0,0,1.035.233A5.769,5.769,0,0,0,15,23.5Zm-4.43-2.4a.75.75,0,0,0-.724,1.314,1.232,1.232,0,0,1,0,2.176A.75.75,0,0,0,10.57,25.9a2.732,2.732,0,0,0,0-4.8Z" transform="translate(0 -15.995)"/></svg>