<svg xmlns="http://www.w3.org/2000/svg" width="15.75" height="18" viewBox="0 0 15.75 18">
  <path id="Path_364" data-name="Path 364" d="M207.461,235.017a2.855,2.855,0,0,0-.391-.568.211.211,0,0,1-.009-.263,3.937,3.937,0,1,0-6.372,0,.211.211,0,0,1-.009.263,2.877,2.877,0,0,0-.391.568.211.211,0,0,1-.35.038,5.062,5.062,0,1,1,7.875,0,.212.212,0,0,1-.353-.035ZM203.875,224a7.877,7.877,0,0,0-4.092,14.607.211.211,0,0,0,.319-.209c-.044-.314-.081-.624-.109-.915a.212.212,0,0,0-.087-.151,6.75,6.75,0,1,1,7.938,0,.212.212,0,0,0-.087.151c-.028.292-.066.6-.109.915a.211.211,0,0,0,.319.209A7.877,7.877,0,0,0,203.875,224Zm2.25,12.507a25.655,25.655,0,0,1-.723,4.669c-.181.669-.864.824-1.527.824s-1.346-.156-1.527-.824a25.631,25.631,0,0,1-.723-4.669c0-1.236,1.095-1.538,2.25-1.538S206.125,235.271,206.125,236.507Zm-1.125,0c0-.574-2.25-.573-2.25,0a25,25,0,0,0,.668,4.315,1.989,1.989,0,0,0,.914,0A24.991,24.991,0,0,0,205,236.507Zm1.125-4.632a2.25,2.25,0,1,1-2.25-2.25A2.25,2.25,0,0,1,206.125,231.875Zm-1.125,0A1.125,1.125,0,1,0,203.875,233,1.126,1.126,0,0,0,205,231.875Z" transform="translate(-196 -224)" fill="#00c8d4"/>
</svg>
