<svg xmlns="http://www.w3.org/2000/svg" width="205.037" height="42.275" viewBox="0 0 205.037 42.275">
  <g id="Layer_2" data-name="Layer 2" transform="translate(-1.5 -1.5)">
    <g id="Layer_1" data-name="Layer 1" transform="translate(2.5 2.5)">
      <path id="Path_365" data-name="Path 365" d="M21.633,5.319H18.815V2.5H2.5V24.452H18.772V21.591h2.819V18.772H24.41V8.138H21.591V5.319ZM13.818,16.637v2.819h-3.5v-12h3.5v2.819h2.819v6.364Z" transform="translate(-2.5 -2.5)" fill="none" stroke="#fff" stroke-width="2"/>
      <path id="Path_366" data-name="Path 366" d="M55.5,24.452H77.452v-5H63.316v-3.5H74.633V11H63.316V7.454H77.452V2.5H55.5Z" transform="translate(-32.864 -2.5)" fill="none" stroke="#fff" stroke-width="2"/>
      <path id="Path_367" data-name="Path 367" d="M108.5,24.452h7.816v-8.5h11.318V11H116.316V7.454h14.137V2.5H108.5Z" transform="translate(-63.229 -2.5)" fill="none" stroke="#fff" stroke-width="2"/>
      <path id="Path_368" data-name="Path 368" d="M168.1,7.454h5.68v12H168.1v5h19.133v-5h-5.68v-12h5.68V2.5H168.1Z" transform="translate(-97.374 -2.5)" fill="none" stroke="#fff" stroke-width="2"/>
      <path id="Path_369" data-name="Path 369" d="M228.637,11h-2.819v2.819h-.683V11h-2.819V2.5H214.5V15.953h2.819v2.819h2.861v2.819H223v2.861h4.954V21.591h2.819V18.772h2.819V15.953h2.861V2.5h-7.816Z" transform="translate(-123.958 -2.5)" fill="none" stroke="#fff" stroke-width="2"/>
      <path id="Path_370" data-name="Path 370" d="M274.1,7.454h5.68v12H274.1v5h19.133v-5h-5.68v-12h5.68V2.5H274.1Z" transform="translate(-158.103 -2.5)" fill="none" stroke="#fff" stroke-width="2"/>
      <path id="Path_371" data-name="Path 371" d="M334.916,2.5H327.1V24.452h19.133v-5H334.916Z" transform="translate(-188.468 -2.5)" fill="none" stroke="#fff" stroke-width="2"/>
      <path id="Path_372" data-name="Path 372" d="M387.916,2.5H380.1V24.452h19.133v-5H387.916Z" transform="translate(-218.832 -2.5)" fill="none" stroke="#fff" stroke-width="2"/>
      <path id="Path_373" data-name="Path 373" d="M448.452,7.454V2.5H426.5V24.452h21.952v-5H434.316v-3.5h11.275V11H434.316V7.454Z" transform="translate(-245.415 -2.5)" fill="none" stroke="#fff" stroke-width="2"/>
      <path id="Path_374" data-name="Path 374" d="M11.576,86.012H9.24L5.332,80.084v5.928H3V76.42H5.332L9.24,82.365V76.42h2.336Z" transform="translate(-2.786 -44.85)" fill="#fff"/>
      <path id="Path_375" data-name="Path 375" d="M60.616,76.42v9.592H58.28V76.42Z" transform="translate(-34.457 -44.85)" fill="#fff"/>
      <path id="Path_376" data-name="Path 376" d="M105.227,76.42v1.871h-3.912v2.024h2.926V82.13h-2.926v3.882H99V76.42Z" transform="translate(-57.786 -44.85)" fill="#fff"/>
      <path id="Path_377" data-name="Path 377" d="M153.893,76.42v1.871h-2.541v7.722h-2.34V78.291H146.47V76.42Z" transform="translate(-84.982 -44.85)" fill="#fff"/>
      <path id="Path_378" data-name="Path 378" d="M205.052,76.42l-3.323,6.406V86h-2.336V82.843l-3.323-6.406h2.652l1.858,4.015,1.845-4.015Z" transform="translate(-113.399 -44.85)" fill="#fff"/>
      <path id="Path_379" data-name="Path 379" d="M261.408,76.42v9.592h-2.349V80.26l-2.135,5.753h-1.888l-2.17-5.766v5.766H250.53V76.42h2.763l2.691,6.654,2.665-6.641Z" transform="translate(-144.6 -44.85)" fill="#fff"/>
      <path id="Path_380" data-name="Path 380" d="M313.372,76.42v5.74a1.9,1.9,0,0,0,.427,1.324,1.589,1.589,0,0,0,1.243.466A1.649,1.649,0,0,0,316.3,83.5a1.862,1.862,0,0,0,.427-1.324V76.42h2.336v5.723a4.036,4.036,0,0,1-.547,2.174,3.5,3.5,0,0,1-1.469,1.341,4.634,4.634,0,0,1-2.054.427,4.455,4.455,0,0,1-2.029-.427,3.288,3.288,0,0,1-1.418-1.337,4.271,4.271,0,0,1-.517-2.182V76.42Z" transform="translate(-179.258 -44.85)" fill="#fff"/>
      <path id="Path_381" data-name="Path 381" d="M366.152,85.563a3.032,3.032,0,0,1-1.333-1.008,2.8,2.8,0,0,1-.53-1.614h2.49a1.11,1.11,0,0,0,1.187,1.093,1.281,1.281,0,0,0,.82-.239.8.8,0,0,0,.3-.662.79.79,0,0,0-.239-.589,1.973,1.973,0,0,0-.589-.38,8.2,8.2,0,0,0-.991-.342,10.609,10.609,0,0,1-1.516-.577,2.814,2.814,0,0,1-1.012-.854,2.375,2.375,0,0,1-.427-1.465,2.52,2.52,0,0,1,.97-2.1,3.993,3.993,0,0,1,2.528-.756,4.036,4.036,0,0,1,2.563.756,2.721,2.721,0,0,1,1.051,2.123H368.9a1.008,1.008,0,0,0-.342-.735,1.226,1.226,0,0,0-.807-.265,1.008,1.008,0,0,0-.683.226.854.854,0,0,0,.175,1.371,7.12,7.12,0,0,0,1.367.564,13.433,13.433,0,0,1,1.512.6,2.845,2.845,0,0,1,1,.854,2.229,2.229,0,0,1,.427,1.405,2.772,2.772,0,0,1-.427,1.491,2.93,2.93,0,0,1-1.209,1.068,4.2,4.2,0,0,1-1.875.393A4.869,4.869,0,0,1,366.152,85.563Z" transform="translate(-209.774 -44.648)" fill="#fff"/>
      <path id="Path_382" data-name="Path 382" d="M418.186,76.42v9.592H415.85V76.42Z" transform="translate(-239.314 -44.85)" fill="#fff"/>
      <path id="Path_383" data-name="Path 383" d="M456.2,78.515a4.382,4.382,0,0,1,1.708-1.734,4.971,4.971,0,0,1,2.494-.624,4.762,4.762,0,0,1,2.921.9,4.335,4.335,0,0,1,1.649,2.447h-2.563a2.08,2.08,0,0,0-.816-.914,2.285,2.285,0,0,0-1.2-.316,2.229,2.229,0,0,0-1.747.752,3.348,3.348,0,0,0,0,4.019,2.229,2.229,0,0,0,1.747.752,2.285,2.285,0,0,0,1.2-.316,2.08,2.08,0,0,0,.816-.914h2.563a4.271,4.271,0,0,1-1.627,2.451,4.788,4.788,0,0,1-2.921.9,4.971,4.971,0,0,1-2.494-.624,4.416,4.416,0,0,1-1.708-1.708,5.522,5.522,0,0,1,0-5.065Z" transform="translate(-262.093 -44.698)" fill="#fff"/>
    </g>
  </g>
</svg>
